<svg width="64" height="64" viewBox="0 0 64 64" xmlns="http://www.w3.org/2000/svg">
  <!-- Warm linen background, rounded -->
  <rect width="64" height="64" rx="14" fill="#F6F2EA"/>

  <!-- Soil mound -->
  <path d="M10 40c4-4 10-6 22-6s18 2 22 6v6c0 3-2 5-5 5H15c-3 0-5-2-5-5v-6z" fill="#C9923E" opacity="0.18"/>

  <!-- Roots, branching down from the base -->
  <g stroke="#8A6A3B" stroke-width="2.4" stroke-linecap="round" fill="none">
    <path d="M32 34c-3 4-4 7-3 13"/>
    <path d="M32 34c-7 3-10 6-11 11"/>
    <path d="M32 34c7 3 10 6 11 11"/>
    <path d="M32 34c3 5 3 8 1 13"/>
    <path d="M32 34c-1 5-1 8 1 13"/>
  </g>

  <!-- Shoot / stem rising up -->
  <path d="M32 34V17" stroke="#2F5D50" stroke-width="2.6" stroke-linecap="round"/>

  <!-- Leaves -->
  <path d="M32 24c-6-1-9-5-9-10 6 0 10 3 11 9z" fill="#2F5D50"/>
  <path d="M32 20c6-1 9-5 9-9-6 0-10 2-11 8z" fill="#3E7A64"/>
</svg>
